<?xml version="1.0" standalone="no"?>
<!DOCTYPE svg PUBLIC "-//W3C//DTD SVG 20010904//EN"
 "http://www.w3.org/TR/2001/REC-SVG-20010904/DTD/svg10.dtd">
<svg version="1.0" xmlns="http://www.w3.org/2000/svg"
 width="1500.000000pt" height="1500.000000pt" viewBox="0 0 1500.000000 1500.000000"
 preserveAspectRatio="xMidYMid meet">
<metadata>
Created by potrace 1.14, written by Peter Selinger 2001-2017
</metadata>
<g transform="translate(0.000000,1500.000000) scale(0.100000,-0.100000)"
fill="#000000" stroke="none">
<path d="M3960 12363 c-70 -3 -316 -23 -355 -28 -16 -2 -52 -6 -80 -10 -219
-26 -477 -81 -690 -148 -659 -208 -1154 -592 -1447 -1123 -154 -279 -258 -646
-285 -1012 -16 -202 -7 -535 17 -662 5 -25 11 -65 15 -90 28 -197 142 -521
261 -745 75 -141 241 -388 309 -461 5 -6 28 -33 50 -60 150 -185 403 -420 645
-600 331 -246 603 -395 1550 -846 336 -161 763 -374 836 -419 392 -237 585
-561 560 -940 -22 -329 -188 -569 -501 -727 -129 -65 -307 -120 -475 -147 -25
-4 -54 -9 -64 -11 -104 -19 -602 -26 -801 -12 -100 8 -250 24 -315 33 -19 3
-66 10 -105 16 -38 5 -95 14 -125 19 -30 5 -70 12 -89 15 -290 49 -807 185
-1166 307 -129 43 -427 152 -460 168 -11 5 -53 22 -92 39 l-73 30 -5 -22 c-3
-17 -146 -1083 -171 -1282 -2 -22 -7 -51 -9 -65 -2 -14 -7 -47 -10 -75 -3 -27
-12 -95 -20 -150 -28 -205 -28 -212 -8 -218 10 -3 81 -29 157 -57 230 -85 672
-216 826 -244 14 -2 68 -14 120 -25 52 -11 109 -23 125 -26 165 -29 319 -55
358 -60 27 -4 58 -8 69 -10 11 -3 46 -7 77 -10 31 -4 63 -8 71 -10 8 -2 44 -6
80 -10 36 -3 76 -8 90 -10 14 -2 66 -7 115 -11 50 -3 104 -8 120 -10 163 -19
923 -27 1180 -11 111 6 343 29 425 42 14 2 61 9 105 15 44 7 110 18 147 26 37
7 82 16 100 19 59 10 240 55 328 81 292 88 547 198 766 330 286 171 512 373
693 616 89 121 149 221 217 364 76 159 158 417 180 563 3 20 7 43 9 51 2 8 7
38 10 65 4 28 8 61 11 75 8 47 18 245 18 355 1 450 -114 845 -362 1240 -291
465 -730 879 -1317 1241 -194 120 -259 155 -770 419 -93 48 -224 116 -290 150
-66 34 -230 119 -365 188 -135 69 -265 137 -290 151 -25 14 -52 29 -60 33 -22
10 -117 70 -185 116 -255 174 -460 400 -543 599 -46 110 -62 180 -69 295 -20
332 114 624 362 795 101 69 295 151 410 174 385 77 711 60 1045 -52 378 -128
819 -409 1181 -752 l67 -63 134 153 c73 84 194 223 268 308 74 85 139 160 145
166 5 6 35 40 65 75 60 70 197 227 239 274 14 17 85 98 156 180 71 83 147 168
167 190 21 22 38 43 38 47 0 10 -171 162 -285 253 -351 282 -694 476 -1175
665 -218 86 -595 182 -880 226 -25 3 -54 8 -64 10 -11 2 -65 8 -120 14 -56 6
-121 13 -146 16 -51 5 -567 12 -650 7z"/>
<path d="M10230 11425 l0 -811 1083 0 1082 0 1 -2370 c1 -1303 -2 -2412 -7
-2464 -7 -88 -12 -125 -25 -220 -10 -73 -67 -288 -96 -360 -76 -192 -183 -363
-304 -484 -215 -214 -476 -339 -819 -392 -121 -19 -406 -26 -530 -14 -134 14
-190 23 -296 50 -333 85 -611 282 -798 565 -67 102 -173 346 -196 451 -36 170
-46 224 -55 304 -9 88 -17 198 -19 278 l-1 32 -916 0 -917 0 7 -190 c6 -182
25 -404 46 -534 5 -34 12 -79 15 -101 12 -76 54 -261 84 -370 244 -875 816
-1542 1606 -1875 11 -4 36 -15 55 -23 36 -16 265 -93 356 -120 28 -9 103 -27
165 -41 98 -22 152 -32 329 -61 14 -3 56 -7 95 -11 38 -4 73 -8 76 -10 31 -18
748 -26 948 -11 415 32 822 125 1166 268 303 125 597 314 834 534 74 69 175
174 217 225 16 19 35 41 42 49 27 28 130 169 174 236 85 133 168 288 239 450
42 97 127 344 144 418 2 12 11 49 20 82 33 134 69 320 80 425 3 30 8 62 10 70
2 8 6 53 10 100 4 47 9 101 12 120 3 19 7 1516 9 3325 l5 3291 -1966 0 -1965
0 0 -811z"/>
</g>
</svg>
